<mxfile host="app.diagrams.net" modified="2023-04-07T04:46:30.712Z" agent="Mozilla/5.0 (Windows NT 10.0; Win64; x64) AppleWebKit/537.36 (KHTML, like Gecko) Chrome/111.0.0.0 Safari/537.36" etag="wV-IO9kpyVipORzSlM8Y" version="21.1.5" type="device">
  <diagram id="C5RBs43oDa-KdzZeNtuy" name="Page-1">
    <mxGraphModel dx="1050" dy="602" grid="1" gridSize="10" guides="1" tooltips="1" connect="1" arrows="1" fold="1" page="1" pageScale="1" pageWidth="827" pageHeight="1169" math="0" shadow="0">
      <root>
        <mxCell id="WIyWlLk6GJQsqaUBKTNV-0" />
        <mxCell id="WIyWlLk6GJQsqaUBKTNV-1" parent="WIyWlLk6GJQsqaUBKTNV-0" />
        <mxCell id="9BRluLomFv_38myBSWmR-16" style="edgeStyle=orthogonalEdgeStyle;rounded=0;orthogonalLoop=1;jettySize=auto;html=1;" edge="1" parent="WIyWlLk6GJQsqaUBKTNV-1" source="9BRluLomFv_38myBSWmR-8" target="9BRluLomFv_38myBSWmR-9">
          <mxGeometry relative="1" as="geometry" />
        </mxCell>
        <mxCell id="9BRluLomFv_38myBSWmR-8" value="" style="strokeWidth=2;html=1;shape=mxgraph.flowchart.start_2;whiteSpace=wrap;fillColor=#647687;fontColor=#ffffff;strokeColor=#314354;" vertex="1" parent="WIyWlLk6GJQsqaUBKTNV-1">
          <mxGeometry x="390" y="520" width="90" height="90" as="geometry" />
        </mxCell>
        <mxCell id="9BRluLomFv_38myBSWmR-17" style="edgeStyle=orthogonalEdgeStyle;rounded=0;orthogonalLoop=1;jettySize=auto;html=1;" edge="1" parent="WIyWlLk6GJQsqaUBKTNV-1" source="9BRluLomFv_38myBSWmR-9" target="9BRluLomFv_38myBSWmR-10">
          <mxGeometry relative="1" as="geometry" />
        </mxCell>
        <mxCell id="9BRluLomFv_38myBSWmR-9" value="&quot;Ingresar primer valor: &quot; .num1" style="shape=parallelogram;html=1;strokeWidth=2;perimeter=parallelogramPerimeter;whiteSpace=wrap;rounded=1;arcSize=12;size=0.23;fillColor=#fff2cc;strokeColor=#d6b656;" vertex="1" parent="WIyWlLk6GJQsqaUBKTNV-1">
          <mxGeometry x="320" y="650" width="259" height="70" as="geometry" />
        </mxCell>
        <mxCell id="9BRluLomFv_38myBSWmR-18" style="edgeStyle=orthogonalEdgeStyle;rounded=0;orthogonalLoop=1;jettySize=auto;html=1;entryX=0.5;entryY=0;entryDx=0;entryDy=0;" edge="1" parent="WIyWlLk6GJQsqaUBKTNV-1" source="9BRluLomFv_38myBSWmR-10" target="9BRluLomFv_38myBSWmR-11">
          <mxGeometry relative="1" as="geometry" />
        </mxCell>
        <mxCell id="9BRluLomFv_38myBSWmR-10" value="&quot;Ingresar segundo valor: &quot; .num2" style="shape=parallelogram;html=1;strokeWidth=2;perimeter=parallelogramPerimeter;whiteSpace=wrap;rounded=1;arcSize=12;size=0.23;fillColor=#fff2cc;strokeColor=#d6b656;" vertex="1" parent="WIyWlLk6GJQsqaUBKTNV-1">
          <mxGeometry x="300" y="760" width="260" height="70" as="geometry" />
        </mxCell>
        <mxCell id="9BRluLomFv_38myBSWmR-19" style="edgeStyle=orthogonalEdgeStyle;rounded=0;orthogonalLoop=1;jettySize=auto;html=1;entryX=0.5;entryY=0;entryDx=0;entryDy=0;" edge="1" parent="WIyWlLk6GJQsqaUBKTNV-1" source="9BRluLomFv_38myBSWmR-11" target="9BRluLomFv_38myBSWmR-13">
          <mxGeometry relative="1" as="geometry" />
        </mxCell>
        <mxCell id="9BRluLomFv_38myBSWmR-11" value="&quot;Ingresar tercer valor: &quot; .num3" style="shape=parallelogram;html=1;strokeWidth=2;perimeter=parallelogramPerimeter;whiteSpace=wrap;rounded=1;arcSize=12;size=0.23;fillColor=#fff2cc;strokeColor=#d6b656;" vertex="1" parent="WIyWlLk6GJQsqaUBKTNV-1">
          <mxGeometry x="300" y="860" width="265" height="70" as="geometry" />
        </mxCell>
        <mxCell id="9BRluLomFv_38myBSWmR-20" style="edgeStyle=orthogonalEdgeStyle;rounded=0;orthogonalLoop=1;jettySize=auto;html=1;" edge="1" parent="WIyWlLk6GJQsqaUBKTNV-1" source="9BRluLomFv_38myBSWmR-13" target="9BRluLomFv_38myBSWmR-14">
          <mxGeometry relative="1" as="geometry" />
        </mxCell>
        <mxCell id="9BRluLomFv_38myBSWmR-13" value="resultado= num1 +&amp;nbsp; num2 + num3" style="rounded=1;whiteSpace=wrap;html=1;absoluteArcSize=1;arcSize=14;strokeWidth=2;fillColor=#fff2cc;strokeColor=#d6b656;" vertex="1" parent="WIyWlLk6GJQsqaUBKTNV-1">
          <mxGeometry x="327.5" y="970" width="210" height="100" as="geometry" />
        </mxCell>
        <mxCell id="9BRluLomFv_38myBSWmR-21" style="edgeStyle=orthogonalEdgeStyle;rounded=0;orthogonalLoop=1;jettySize=auto;html=1;" edge="1" parent="WIyWlLk6GJQsqaUBKTNV-1" source="9BRluLomFv_38myBSWmR-14" target="9BRluLomFv_38myBSWmR-15">
          <mxGeometry relative="1" as="geometry" />
        </mxCell>
        <mxCell id="9BRluLomFv_38myBSWmR-14" value="&quot;El valor total de la suma es: &quot; . resultado" style="strokeWidth=2;html=1;shape=mxgraph.flowchart.document2;whiteSpace=wrap;size=0.25;fillColor=#fff2cc;strokeColor=#d6b656;" vertex="1" parent="WIyWlLk6GJQsqaUBKTNV-1">
          <mxGeometry x="312.5" y="1130" width="252.5" height="100" as="geometry" />
        </mxCell>
        <mxCell id="9BRluLomFv_38myBSWmR-15" value="" style="strokeWidth=2;html=1;shape=mxgraph.flowchart.start_2;whiteSpace=wrap;fillColor=#647687;fontColor=#ffffff;strokeColor=#314354;" vertex="1" parent="WIyWlLk6GJQsqaUBKTNV-1">
          <mxGeometry x="387.5" y="1290" width="90" height="90" as="geometry" />
        </mxCell>
      </root>
    </mxGraphModel>
  </diagram>
</mxfile>
